<?xml version="1.0" standalone="no"?>
<!DOCTYPE svg PUBLIC "-//W3C//DTD SVG 20010904//EN"
 "http://www.w3.org/TR/2001/REC-SVG-20010904/DTD/svg10.dtd">
<svg version="1.0" xmlns="http://www.w3.org/2000/svg"
 width="700.000000pt" height="700.000000pt" viewBox="0 0 700.000000 700.000000"
 preserveAspectRatio="xMidYMid meet">
<metadata>
Created by potrace 1.14, written by Peter Selinger 2001-2017
</metadata>
<g transform="translate(0.000000,700.000000) scale(0.100000,-0.100000)"
fill="#000000" stroke="none">
<path d="M3395 6993 c-355 -55 -641 -306 -739 -647 -15 -48 -26 -96 -26 -106
0 -16 -36 -17 -627 -18 -393 0 -645 -4 -673 -11 -122 -28 -225 -104 -288 -215
-55 -96 -52 73 -52 -2886 0 -2442 2 -2741 16 -2794 39 -150 179 -277 335 -306
37 -7 769 -9 2205 -8 l2149 3 68 32 c121 57 213 175 237 303 7 35 10 991 10
2785 0 2999 4 2773 -58 2888 -45 84 -163 177 -243 192 -11 2 -30 7 -41 11 -12
3 -299 6 -639 6 -564 1 -619 2 -620 17 -4 79 -72 254 -141 361 -76 116 -215
238 -349 305 -116 59 -226 86 -369 89 -69 2 -138 2 -155 -1z m335 -416 c110
-49 205 -140 254 -242 36 -77 46 -104 38 -109 -4 -2 -233 -4 -510 -4 l-503 0
7 22 c24 83 89 186 154 244 149 134 378 171 560 89z m-1511 -804 c107 -343
398 -583 761 -628 68 -9 1004 -9 1080 0 205 22 409 123 553 273 102 108 177
238 215 377 l19 70 204 3 205 2 0 -2545 c-1 -1719 -4 -2545 -11 -2546 -54 -3
-3467 0 -3471 4 -4 4 -8 4321 -5 4975 l1 112 209 0 209 0 31 -97z"/>
<path d="M4443 4733 c-15 -16 -66 -71 -113 -122 -47 -51 -110 -120 -140 -153
l-56 -60 -68 56 c-38 31 -72 56 -76 56 -13 0 -221 -261 -215 -270 3 -6 52 -47
108 -92 56 -45 104 -85 107 -88 15 -17 173 -140 179 -140 5 0 40 35 78 78 39
43 84 92 99 108 16 17 53 58 83 90 30 32 93 102 142 154 48 52 103 113 123
135 l37 40 -33 28 c-29 25 -80 73 -195 180 l-31 29 -29 -29z"/>
<path d="M2333 4255 c0 -121 3 -175 11 -176 15 -1 1138 -1 1154 0 9 1 12 43
12 176 l0 175 -588 0 -588 0 -1 -175z"/>
<path d="M4444 3606 c-18 -22 -161 -179 -264 -289 l-46 -49 -69 56 c-37 31
-72 55 -77 54 -10 -4 -218 -260 -217 -268 0 -8 381 -315 394 -318 7 -2 52 41
101 95 49 53 110 120 136 148 25 27 60 66 78 85 18 19 53 58 79 85 25 28 74
81 109 119 l63 68 -29 27 c-16 14 -71 64 -122 111 -50 47 -98 88 -104 92 -8 4
-21 -2 -32 -16z"/>
<path d="M2337 3293 c-2 -5 -4 -84 -3 -177 l1 -170 588 0 587 -1 0 178 0 177
-584 0 c-322 0 -587 -3 -589 -7z"/>
<path d="M4425 2452 c-62 -69 -164 -180 -231 -251 l-61 -65 -54 45 c-90 74
-87 73 -102 57 -33 -33 -207 -253 -205 -259 2 -5 103 -89 268 -222 8 -7 41
-33 73 -59 l58 -47 37 41 c20 23 44 49 52 58 8 9 42 45 75 81 173 187 250 271
267 292 11 12 44 48 74 79 63 65 68 47 -47 152 -35 32 -82 75 -104 95 -22 21
-44 40 -50 43 -5 3 -28 -15 -50 -40z"/>
<path d="M2339 2168 c-6 -9 -5 -348 0 -349 3 -1 268 -2 589 -3 l582 -1 0 177
0 178 -585 0 c-322 0 -586 -1 -586 -2z"/>
</g>
</svg>
